<!DOCTYPE svg PUBLIC "-//W3C//DTD SVG 1.1//EN" "http://www.w3.org/Graphics/SVG/1.1/DTD/svg11.dtd">
<!-- Uploaded to: SVG Repo, www.svgrepo.com, Transformed by: SVG Repo Mixer Tools -->
<svg fill="#FF0800" width="800px" height="800px" viewBox="-2.2 -2.2 26.40 26.40" xmlns="http://www.w3.org/2000/svg" id="memory-checkbox-marked" stroke="#FF0800" stroke-width="0.242">
<g id="SVGRepo_bgCarrier" stroke-width="0" transform="translate(0.22000000000000064,0.22000000000000064), scale(0.98)"/>
<g id="SVGRepo_tracerCarrier" stroke-linecap="round" stroke-linejoin="round" stroke="#CCCCCC" stroke-width="0.044"/>
<g id="SVGRepo_iconCarrier">
<path d="M3 4H4V3H18V4H17V5H5V17H17V11H18V10H19V18H18V19H4V18H3V4M6 9H8V10H9V11H10V12H12V11H13V10H14V9H15V8H16V7H17V6H18V5H19V4H21V6H20V7H19V8H18V9H17V10H16V11H15V12H14V13H13V14H12V15H10V14H9V13H8V12H7V11H6V9Z"/>
</g>
</svg>